<?xml version="1.0" encoding="utf-8"?>
<!-- Generator: Adobe Illustrator 16.0.0, SVG Export Plug-In . SVG Version: 6.00 Build 0)  -->
<!DOCTYPE svg PUBLIC "-//W3C//DTD SVG 1.1//EN" "http://www.w3.org/Graphics/SVG/1.1/DTD/svg11.dtd">
<svg version="1.1" id="Layer_1" xmlns="http://www.w3.org/2000/svg" xmlns:xlink="http://www.w3.org/1999/xlink" x="0px" y="0px"
	 width="297.45px" height="337.339px" viewBox="26 228.35 297.45 337.339" enable-background="new 26 228.35 297.45 337.339"
	 xml:space="preserve">
<g>
	<polygon fill="#E45126" points="53.07,531.97 26,228.35 323.45,228.35 296.352,531.921 174.543,565.689 	"/>
	<polygon fill="#F1682B" points="174.725,539.878 273.152,512.591 296.31,253.175 174.725,253.175 	"/>
	<polygon fill="#EBEBEB" points="174.725,365.785 125.45,365.785 122.046,327.652 174.725,327.652 174.725,290.414 174.596,290.414 
		81.35,290.414 82.242,300.404 91.394,403.019 174.725,403.019 	"/>
	<polygon fill="#EBEBEB" points="174.725,462.492 174.562,462.539 133.09,451.337 130.438,421.64 110.287,421.64 93.058,421.64 
		98.275,480.109 174.553,501.285 174.725,501.236 	"/>
	<polygon fill="#FFFFFF" points="174.596,365.785 174.596,403.019 220.45,403.019 216.127,451.312 174.596,462.523 174.596,501.267 
		250.936,480.109 251.495,473.818 260.247,375.783 261.155,365.785 251.12,365.785 	"/>
	<polygon fill="#FFFFFF" points="174.596,290.414 174.596,313.541 174.596,327.561 174.596,327.652 264.422,327.652 
		264.422,327.652 264.543,327.652 265.29,319.283 266.986,300.404 267.877,290.414 	"/>
</g>
</svg>
