<svg xmlns="http://www.w3.org/2000/svg" width="89.658" height="87.016" viewBox="0 0 89.658 87.016"><linearGradient id="a" gradientUnits="userSpaceOnUse" x1=".661" y1="-.661" x2="88.998" y2="87.677"><stop offset="0" stop-color="#5F4522"/><stop offset="1" stop-color="#373316"/></linearGradient><path opacity=".95" fill="url(#a)" d="M0 0h89.658v87.016H0z"/><path fill="#010101" d="M31.547 52.583L28.09 63.968h-7.57l12.874-40.17h9.357l13.053 40.17h-7.866L44.3 52.583H31.548zm11.503-5.54l-3.16-9.895c-.773-2.443-1.43-5.186-2.025-7.51h-.12c-.596 2.324-1.19 5.125-1.907 7.51l-3.098 9.894h10.31z" opacity=".1"/><linearGradient id="b" gradientUnits="userSpaceOnUse" x1="19.823" y1="42.557" x2="65.871" y2="42.557"><stop offset="0" stop-color="#FDC560"/><stop offset="1" stop-color="#F99C1C"/></linearGradient><path fill="url(#b)" d="M31.547 51.258L28.09 62.643h-7.57l12.874-40.17h9.357l13.053 40.17h-7.866L44.3 51.258H31.548zm11.503-5.542l-3.16-9.894c-.773-2.443-1.43-5.186-2.025-7.51h-.12c-.596 2.324-1.19 5.125-1.907 7.51l-3.098 9.894h10.31z"/><path fill="#010101" d="M66.47 26.837c0 2.206-1.608 3.934-4.17 3.934-2.445 0-4.055-1.727-4.055-3.933 0-2.265 1.67-3.994 4.112-3.994 2.504 0 4.053 1.73 4.114 3.994zm-7.808 37.13V34.943h7.39v29.026h-7.39z" opacity=".1"/><linearGradient id="c" gradientUnits="userSpaceOnUse" x1="19.817" y1="42.081" x2="65.873" y2="42.081"><stop offset="0" stop-color="#FDC560"/><stop offset="1" stop-color="#F99C1C"/></linearGradient><path fill="url(#c)" d="M66.47 25.512c0 2.206-1.608 3.934-4.17 3.934-2.445 0-4.055-1.728-4.055-3.934 0-2.265 1.67-3.994 4.112-3.994 2.504 0 4.053 1.73 4.114 3.994zm-7.808 37.13V33.618h7.39v29.026h-7.39z"/></svg>