<svg xmlns="http://www.w3.org/2000/svg" width="297.45" height="337.341" viewBox="700.55 228.374 297.45 337.341" enable-background="new 700.55 228.374 297.45 337.341"><path fill="#1673B6" d="M727.62 531.994l-27.07-303.62H998l-27.097 303.57-121.81 33.77z"/><path fill="#35A9DB" d="M849.276 539.904l98.427-27.29L970.86 253.2H849.276z"/><path fill="#fff" d="M849.275 363.2h49.276l3.403-38.132h-52.678v-37.24h93.375l-.892 9.992-9.153 102.616h-83.33z"/><path fill="#EBEBEB" d="M849.498 459.907l-.162.047-41.473-11.2-2.65-29.697h-37.38l5.217 58.468 76.276 21.176.172-.048z"/><path fill="#fff" d="M895.386 398.86l-4.485 49.87-41.53 11.21v38.742l76.34-21.157.56-6.29 6.476-72.376z"/><path fill="#EBEBEB" d="M849.404 287.83v37.237H759.456l-.745-8.37-1.696-18.877-.89-9.99zM849.275 363.204V400.44h-40.948l-.745-8.367-1.697-18.878-.89-9.99z"/></svg>