<svg xmlns="http://www.w3.org/2000/svg" width="297.45" height="337.339" viewBox="26 228.35 297.45 337.339" enable-background="new 26 228.35 297.45 337.339"><path fill="#E45126" d="M53.07 531.97L26 228.35h297.45l-27.098 303.57-121.81 33.77z"/><path fill="#F1682B" d="M174.725 539.878l98.427-27.287 23.158-259.415H174.725z"/><path fill="#EBEBEB" d="M174.725 365.785H125.45l-3.404-38.133h52.68v-37.238H81.35l.892 9.99 9.152 102.615h83.33zM174.725 462.492l-.163.047-41.472-11.203-2.652-29.697H93.058l5.217 58.47 76.278 21.175.172-.05z"/><path fill="#fff" d="M174.596 365.785v37.234h45.854l-4.323 48.292-41.53 11.21v38.745l76.34-21.158.558-6.292 8.752-98.035.908-9.998H251.12zM174.596 290.414v37.239h89.946l.748-8.37 1.696-18.878.89-9.99z"/></svg>