<?xml version="1.0" encoding="utf-8"?>
<!-- Generator: Adobe Illustrator 16.0.0, SVG Export Plug-In . SVG Version: 6.00 Build 0)  -->
<!DOCTYPE svg PUBLIC "-//W3C//DTD SVG 1.1//EN" "http://www.w3.org/Graphics/SVG/1.1/DTD/svg11.dtd">
<svg version="1.1" id="Layer_1" xmlns="http://www.w3.org/2000/svg" xmlns:xlink="http://www.w3.org/1999/xlink" x="0px" y="0px"
	 width="297.449px" height="337.342px" viewBox="363.275 105.132 297.449 337.342"
	 enable-background="new 363.275 105.132 297.449 337.342" xml:space="preserve">
<g>
	<polygon fill="#E4A227" points="390.345,408.753 363.275,105.132 660.725,105.132 633.627,408.705 511.818,442.474 	"/>
	<polygon fill="#F0BF26" points="511.75,416.287 610.178,389 633.336,129.583 511.75,129.583 	"/>
	<polygon fill="#EBEBEB" points="511.693,338.925 511.531,338.973 470.059,327.773 467.406,298.076 447.256,298.076 
		430.027,298.076 435.244,356.542 511.521,377.718 511.693,377.669 	"/>
	<polygon fill="#EBEBEB" points="516.709,279.437 516.709,242.201 470.855,242.201 476.232,183.757 516.812,182.677 
		516.709,143.954 442.564,143.954 439.811,171.403 431.059,269.438 430.151,279.437 440.186,279.437 	"/>
	<polygon fill="#FFFFFF" points="516.457,182.729 516.62,182.683 557.291,185.132 560.742,223.58 580.893,223.58 598.123,223.58 
		591.609,151.633 516.629,143.937 516.457,143.985 	"/>
	<polyline fill="#FFFFFF" points="594.284,182.843 591.093,143.954 512.49,143.954 512.49,168.106 512.49,182.746 512.49,182.843 
		594.284,182.843 	"/>
	<polygon fill="#FFFFFF" points="511.564,242.218 511.564,279.455 557.418,279.455 553.096,327.748 511.564,338.958 
		511.564,377.701 587.904,356.542 588.463,350.251 597.215,252.216 598.123,242.218 588.088,242.218 	"/>
	<path fill="#FFFFFF" d="M589.5,181.193"/>
</g>
</svg>
