<svg xmlns="http://www.w3.org/2000/svg" width="297.449" height="337.342" viewBox="363.275 105.132 297.449 337.342" enable-background="new 363.275 105.132 297.449 337.342"><path fill="#E4A227" d="M390.345 408.753l-27.07-303.62h297.45l-27.098 303.572-121.81 33.77z"/><path fill="#F0BF26" d="M511.75 416.287L610.178 389l23.158-259.417H511.75z"/><path fill="#EBEBEB" d="M511.693 338.925l-.162.048-41.47-11.2-2.654-29.697H430.026l5.218 58.466 76.277 21.176.173-.05zM516.71 279.437V242.2h-45.855l5.377-58.443 40.58-1.08-.103-38.723h-74.146l-2.753 27.45-8.75 98.034-.91 10h10.036z"/><path fill="#fff" d="M516.457 182.73l.163-.047 40.67 2.45 3.452 38.447H598.122l-6.513-71.947-74.98-7.696-.173.048zM594.284 182.843l-3.19-38.89H512.49v38.89h81.794"/><path fill="#fff" d="M511.564 242.218v37.237h45.854l-4.322 48.293-41.532 11.21V377.7l76.34-21.158.56-6.29 8.75-98.036.91-9.998h-10.036zM589.5 181.193"/></svg>