<svg xmlns="http://www.w3.org/2000/svg" width="89.659" height="87.016" viewBox="0 0 89.659 87.016"><linearGradient id="a" gradientUnits="userSpaceOnUse" x1=".661" y1="-.66" x2="88.998" y2="87.677"><stop offset="0" stop-color="#322E7C"/><stop offset="1" stop-color="#272861"/></linearGradient><path opacity=".95" fill="url(#a)" d="M0 0h89.66v87.016H0z"/><path fill="#010101" d="M21.682 24.23c2.623-.478 6.258-.836 11.205-.836 5.365 0 9.298 1.132 11.86 3.278 2.384 1.967 3.935 5.126 3.935 8.88 0 3.814-1.19 6.974-3.457 9.12-2.92 2.92-7.51 4.29-12.695 4.29-1.37 0-2.622-.06-3.576-.238v15.14h-7.27V24.228zm7.272 18.713c.895.238 2.086.298 3.576.298 5.483 0 8.82-2.68 8.82-7.39 0-4.47-3.1-6.854-8.165-6.854-2.026 0-3.456.18-4.23.358v13.59z" opacity=".1"/><linearGradient id="b" gradientUnits="userSpaceOnUse" x1="21.424" y1="42.303" x2="69.812" y2="42.303"><stop offset="0" stop-color="#9BC5E9"/><stop offset="1" stop-color="#7CB2E0"/></linearGradient><path fill="url(#b)" d="M21.682 22.903c2.623-.477 6.258-.835 11.205-.835 5.365 0 9.298 1.132 11.86 3.278 2.384 1.967 3.935 5.126 3.935 8.88 0 3.814-1.19 6.974-3.457 9.12-2.92 2.92-7.51 4.29-12.695 4.29-1.37 0-2.622-.06-3.576-.238v15.14h-7.27V22.902zm7.272 18.715c.895.238 2.086.298 3.576.298 5.483 0 8.82-2.682 8.82-7.39 0-4.47-3.1-6.855-8.165-6.855-2.026 0-3.456.18-4.23.36v13.588z"/><path fill="#010101" d="M50.943 57.128c1.67 1.014 4.828 2.086 7.45 2.086 3.22 0 4.648-1.312 4.648-3.22 0-1.966-1.19-2.98-4.767-4.23-5.662-1.967-8.046-5.066-7.987-8.463 0-5.124 4.233-9.118 10.968-9.118 3.218 0 6.02.834 7.688 1.73l-1.43 5.184c-1.252-.716-3.576-1.668-6.14-1.668-2.622 0-4.052 1.25-4.052 3.04 0 1.848 1.37 2.74 5.066 4.053 5.244 1.908 7.688 4.59 7.748 8.88 0 5.246-4.113 9.12-11.802 9.12-3.517 0-6.676-.894-8.82-2.085l1.43-5.307z" opacity=".1"/><linearGradient id="c" gradientUnits="userSpaceOnUse" x1="21.426" y1="48.024" x2="69.813" y2="48.024"><stop offset="0" stop-color="#9BC5E9"/><stop offset="1" stop-color="#7CB2E0"/></linearGradient><path fill="url(#c)" d="M50.943 55.803c1.67 1.014 4.828 2.086 7.45 2.086 3.22 0 4.648-1.313 4.648-3.22 0-1.967-1.19-2.98-4.767-4.232-5.662-1.966-8.046-5.065-7.987-8.462 0-5.125 4.233-9.12 10.968-9.12 3.218 0 6.02.835 7.688 1.73l-1.43 5.185c-1.252-.715-3.576-1.667-6.14-1.667-2.622 0-4.052 1.25-4.052 3.04 0 1.848 1.37 2.74 5.066 4.053 5.244 1.907 7.688 4.59 7.748 8.88 0 5.245-4.113 9.12-11.802 9.12-3.517 0-6.676-.895-8.82-2.086l1.43-5.307z"/></svg>