<?xml version="1.0" encoding="utf-8"?>
<!-- Generator: Adobe Illustrator 16.0.0, SVG Export Plug-In . SVG Version: 6.00 Build 0)  -->
<!DOCTYPE svg PUBLIC "-//W3C//DTD SVG 1.1//EN" "http://www.w3.org/Graphics/SVG/1.1/DTD/svg11.dtd">
<svg version="1.1" id="Layer_1" xmlns="http://www.w3.org/2000/svg" xmlns:xlink="http://www.w3.org/1999/xlink" x="0px" y="0px"
	 width="5641.078px" height="2567.833px" viewBox="0 0 5641.078 2567.833" enable-background="new 0 0 5641.078 2567.833"
	 xml:space="preserve">
<g>
	<g>
		<path fill="#191919" d="M2927.998,2456.249c-5.357,46.053-18.211,58.916-50.341,67.479c-26.628,7.094-62.694,15.248-77.726,19.111
			c-15.03,3.865-19.754,6.475-19.754,9.457c0,0,0.001,0.162,0.033,0.451c0.014,0.146,0.032,0.293,0.06,0.436
			c0.649,3.963,86.251,14.65,127.975,14.65h723.532c41.721,0,127.324-10.688,127.971-14.65c0.029-0.143,0.047-0.289,0.062-0.436
			c0.031-0.289,0.031-0.451,0.031-0.451c0-2.982-4.722-5.592-19.751-9.457c-15.031-3.863-51.1-12.018-77.728-19.111
			c-32.128-8.562-44.983-21.426-50.34-67.479c-4.004-34.434-15.192-170.65-20.583-237.197h-642.858
			C2943.19,2285.598,2932.003,2421.815,2927.998,2456.249z"/>
		<path fill="#191919" d="M4809.857,0H1730.158c-40.08,0-72.685,32.61-72.685,72.691v2071.67c0,40.082,32.604,72.691,72.685,72.691
			h1219.641c0,0.002,0,0.002,0,0.004h640.422c0-0.002,0-0.002,0-0.004h1219.637c40.085,0,72.689-32.609,72.689-72.691V72.691
			C4882.547,32.61,4849.942,0,4809.857,0z M4745.867,1782.352H1794.153V136.68h2951.714V1782.352z"/>
	</g>
	<rect x="1794.153" y="113.455" fill="#EBEDEC" width="2951.714" height="1695.455"/>
	<rect x="1853.72" y="172.546" fill="#D4145A" width="2827.272" height="172.728"/>
	<rect x="1853.72" y="431.637" fill="#FCEE21" width="2827.272" height="440.909"/>
	<rect x="1853.72" y="961.182" fill="#0071BC" width="859.091" height="743.182"/>
	<rect x="3821.9" y="961.182" fill="#0071BC" width="859.091" height="743.182"/>
	<rect x="2837.811" y="961.182" fill="#0071BC" width="859.091" height="743.182"/>
</g>
<g>
	<circle fill="none" cx="2299.261" cy="1134.151" r="15.5"/>
	<path fill="#191919" d="M2738.419,2490.635c0-1.744-1.425-3.172-3.175-3.172h-268.707c0.056-0.102,0.106-0.209,0.161-0.311H1595.37
		c-3.559,17.895-19.343,31.383-38.282,31.383H1181.33c-18.939,0-34.723-13.488-38.281-31.383H271.721
		c0.055,0.102,0.105,0.209,0.16,0.311H3.177c-1.744,0-3.177,1.428-3.177,3.172v39.162c0,1.746,0.715,3.332,1.866,4.482H1.831
		c0,0,31.168,33.553,125.842,33.553h2483.042c94.676,0,125.844-33.553,125.844-33.553h-0.003c1.15-1.15,1.863-2.736,1.863-4.482
		V2490.635z"/>
	<rect x="393.293" y="2341.354" fill="none" width="1953.538" height="11.209"/>
	<path fill="#191919" d="M2402.131,1034.219H336.288c-40.165,0-73.027,32.864-73.027,73.033v1388.729h2211.9V1107.252
		C2475.161,1067.083,2442.298,1034.219,2402.131,1034.219z M2346.831,2371.354v11.209H393.293v-11.209V1162.761h1953.538V2371.354z"
		/>
	<polygon fill="#EBEDEC" points="2346.831,2371.354 2346.831,2382.563 393.293,2382.563 393.293,2371.354 393.293,1162.761 
		2346.831,1162.761 	"/>
	<rect x="435.629" y="1206.98" fill="#D4145A" width="1863.633" height="127.912"/>
	<rect x="435.629" y="1398.848" fill="#FCEE21" width="1863.633" height="326.512"/>
	<rect x="435.629" y="1790.998" fill="#0071BC" width="566.28" height="550.356"/>
	<rect x="1732.98" y="1790.998" fill="#0071BC" width="566.28" height="550.356"/>
	<rect x="1084.305" y="1790.998" fill="#0071BC" width="566.281" height="550.356"/>
</g>
<g>
	<path fill="#191919" d="M5274.812,894.64H4081.948c-29.297,0-53.123,23.827-53.123,53.124v1566.93
		c0,29.305,23.826,53.139,53.123,53.139h1192.863c29.301,0,53.128-23.834,53.128-53.139V947.764
		C5327.939,918.467,5304.112,894.64,5274.812,894.64z M4678.38,2520.274c-15.943,0-28.866-12.924-28.866-28.865
		c0-15.943,12.923-28.867,28.866-28.867c15.94,0,28.865,12.924,28.865,28.867C4707.245,2507.35,4694.32,2520.274,4678.38,2520.274z
		 M5203.42,2414.62H4153.345V1047.861H5203.42V2414.62z"/>
	<rect x="4153.344" y="1047.861" fill="#EBEDEC" width="1050.076" height="1366.759"/>
	<rect x="4214.365" y="1098.529" fill="#D4145A" width="943.111" height="172.728"/>
	<rect x="4214.365" y="1330.62" fill="#FCEE21" width="943.111" height="440.91"/>
	<rect x="4214.365" y="1846.165" fill="#0071BC" width="943.111" height="234.473"/>
	<rect x="4214.365" y="2140.147" fill="#0071BC" width="943.111" height="234.473"/>
</g>
<g>
	<path fill="#191919" d="M5561.82,1479.333h-358.885c-43.871,0-79.952,34.145-79.952,78.018v929.109
		c0,43.873,36.081,81.373,79.952,81.373h358.964c43.872,0,79.179-37.5,79.179-81.373V1557.35
		C5641.078,1513.477,5605.692,1479.333,5561.82,1479.333z M5339.835,1556.006h83.311c4.822,0,8.729,2.921,8.729,7.74
		c0,4.822-3.907,7.742-8.729,7.742h-83.311c-4.82,0-8.729-2.92-8.729-7.742C5331.105,1558.927,5335.015,1556.006,5339.835,1556.006z
		 M5381.492,2508.817c-14.326,0-25.938-11.613-25.938-25.939s11.612-25.936,25.938-25.936c14.324,0,25.938,11.609,25.938,25.936
		S5395.816,2508.817,5381.492,2508.817z M5592.507,2398.454h-420.952v-750.988h420.952V2398.454z"/>
	<rect x="5171.555" y="1647.465" fill="#EBEDEC" width="420.952" height="750.988"/>
	<rect x="5463.447" y="1673.802" fill="#D4145A" width="116.061" height="94.319"/>
	<rect x="5190.42" y="1800.537" fill="#FCEE21" width="389.088" height="240.762"/>
	<rect x="5190.42" y="2082.053" fill="#0071BC" width="389.088" height="300.51"/>
</g>
</svg>
