<svg xmlns="http://www.w3.org/2000/svg" width="5641.078" height="2567.833" viewBox="0 0 5641.078 2567.833"><g fill="#191919"><path d="M2927.998 2456.25c-5.357 46.052-18.21 58.915-50.34 67.478-26.63 7.094-62.695 15.248-77.727 19.11-15.03 3.866-19.753 6.476-19.753 9.458 0 0 0 .162.033.45.014.147.032.294.06.437.65 3.963 86.25 14.65 127.975 14.65h723.532c41.72 0 127.324-10.688 127.97-14.65.03-.143.048-.29.063-.436.03-.29.03-.45.03-.45 0-2.983-4.72-5.593-19.75-9.458-15.03-3.864-51.1-12.02-77.728-19.112-32.128-8.562-44.983-21.426-50.34-67.48-4.004-34.433-15.192-170.65-20.583-237.196h-642.86c-5.39 66.546-16.577 202.763-20.582 237.197zM4809.857 0h-3079.7c-40.08 0-72.684 32.61-72.684 72.69v2071.67c0 40.083 32.604 72.692 72.685 72.692h1219.64v.004h640.423v-.004H4809.86c40.085 0 72.69-32.61 72.69-72.69V72.69c0-40.082-32.606-72.692-72.69-72.692zm-63.99 1782.352H1794.153V136.68h2951.714v1645.672z"/></g><path fill="#EBEDEC" d="M1794.153 113.455h2951.714V1808.91H1794.153z"/><path fill="#D4145A" d="M1853.72 172.546h2827.272v172.728H1853.72z"/><path fill="#FCEE21" d="M1853.72 431.637h2827.272v440.91H1853.72z"/><path fill="#0071BC" d="M1853.72 961.182h859.09v743.182h-859.09zM3821.9 961.182h859.09v743.182H3821.9zM2837.81 961.182h859.092v743.182h-859.09z"/><circle cx="2299.261" cy="1134.151" r="15.5" fill="none"/><path fill="#191919" d="M2738.42 2490.635c0-1.744-1.426-3.172-3.176-3.172h-268.707c.056-.102.106-.21.16-.31H1595.37c-3.56 17.894-19.343 31.382-38.282 31.382H1181.33c-18.94 0-34.723-13.488-38.28-31.383H271.72c.056.102.106.21.16.31H3.178c-1.744 0-3.177 1.43-3.177 3.173v39.162c0 1.746.715 3.332 1.866 4.482H1.83S33 2567.83 127.674 2567.83h2483.042c94.676 0 125.844-33.553 125.844-33.553h-.004c1.15-1.15 1.863-2.737 1.863-4.483v-39.162z"/><path fill="none" d="M393.293 2341.354H2346.83v11.21H393.294z"/><path fill="#191919" d="M2402.13 1034.22H336.29c-40.165 0-73.027 32.863-73.027 73.032v1388.73h2211.9V1107.25c0-40.17-32.862-73.033-73.03-73.033zm-55.3 1337.134v11.21H393.294V1162.76H2346.83v1208.594z"/><path fill="#EBEDEC" d="M2346.83 2371.354v11.21H393.294V1162.76H2346.83z"/><path fill="#D4145A" d="M435.63 1206.98H2299.26v127.912H435.63z"/><path fill="#FCEE21" d="M435.63 1398.848H2299.26v326.512H435.63z"/><path fill="#0071BC" d="M435.63 1790.998h566.28v550.356H435.63zM1732.98 1790.998h566.28v550.356h-566.28zM1084.305 1790.998h566.28v550.356h-566.28z"/><path fill="#191919" d="M5274.812 894.64H4081.948c-29.297 0-53.123 23.827-53.123 53.124v1566.93c0 29.305 23.826 53.14 53.123 53.14H5274.81c29.302 0 53.13-23.835 53.13-53.14V947.764c0-29.297-23.828-53.124-53.128-53.124zM4678.38 2520.274c-15.943 0-28.866-12.924-28.866-28.865 0-15.944 12.923-28.868 28.866-28.868 15.94 0 28.865 12.924 28.865 28.867 0 15.94-12.925 28.864-28.865 28.864zm525.04-105.654H4153.345V1047.86H5203.42v1366.76z"/><path fill="#EBEDEC" d="M4153.344 1047.86H5203.42v1366.76H4153.344z"/><path fill="#D4145A" d="M4214.365 1098.53h943.11v172.727h-943.11z"/><path fill="#FCEE21" d="M4214.365 1330.62h943.11v440.91h-943.11z"/><path fill="#0071BC" d="M4214.365 1846.165h943.11v234.473h-943.11zM4214.365 2140.147h943.11v234.473h-943.11z"/><path fill="#191919" d="M5561.82 1479.333h-358.885c-43.87 0-79.952 34.145-79.952 78.018v929.11c0 43.873 36.08 81.373 79.952 81.373H5561.9c43.87 0 79.178-37.5 79.178-81.373v-929.11c0-43.873-35.386-78.017-79.258-78.017zm-221.985 76.673h83.31c4.823 0 8.73 2.92 8.73 7.74 0 4.822-3.907 7.742-8.73 7.742h-83.31c-4.82 0-8.73-2.92-8.73-7.742 0-4.82 3.91-7.74 8.73-7.74zm41.657 952.81c-14.326 0-25.938-11.612-25.938-25.938s11.612-25.936 25.938-25.936c14.324 0 25.938 11.61 25.938 25.936s-11.614 25.94-25.938 25.94zm211.015-110.362h-420.952v-750.988h420.952v750.988z"/><path fill="#EBEDEC" d="M5171.555 1647.465h420.952v750.988h-420.952z"/><path fill="#D4145A" d="M5463.447 1673.802h116.06v94.32h-116.06z"/><path fill="#FCEE21" d="M5190.42 1800.537h389.088V2041.3H5190.42z"/><path fill="#0071BC" d="M5190.42 2082.053h389.088v300.51H5190.42z"/></svg>