<?xml version="1.0" encoding="utf-8"?>
<!-- Generator: Adobe Illustrator 16.0.0, SVG Export Plug-In . SVG Version: 6.00 Build 0)  -->
<!DOCTYPE svg PUBLIC "-//W3C//DTD SVG 1.1//EN" "http://www.w3.org/Graphics/SVG/1.1/DTD/svg11.dtd">
<svg version="1.1" id="Layer_1" xmlns="http://www.w3.org/2000/svg" xmlns:xlink="http://www.w3.org/1999/xlink" x="0px" y="0px"
	 width="89.658px" height="87.016px" viewBox="0 0 89.658 87.016" enable-background="new 0 0 89.658 87.016" xml:space="preserve">
<g>
	<g>
		<linearGradient id="SVGID_1_" gradientUnits="userSpaceOnUse" x1="0.6611" y1="-0.6606" x2="88.9984" y2="87.6766">
			<stop  offset="0" style="stop-color:#5F4522"/>
			<stop  offset="1" style="stop-color:#373316"/>
		</linearGradient>
		<rect opacity="0.95" fill="url(#SVGID_1_)" width="89.658" height="87.016"/>
		<g>
			<g opacity="0.1">
				<path fill="#010101" d="M31.547,52.583L28.09,63.968h-7.569l12.873-40.171h9.357l13.052,40.171h-7.866l-3.636-11.385H31.547z
					 M43.05,47.042l-3.159-9.894c-0.774-2.443-1.431-5.186-2.026-7.51h-0.119c-0.597,2.324-1.192,5.125-1.908,7.51l-3.098,9.894
					H43.05z"/>
			</g>
			<g>
				<linearGradient id="SVGID_2_" gradientUnits="userSpaceOnUse" x1="19.8232" y1="42.5571" x2="65.8708" y2="42.5571">
					<stop  offset="0" style="stop-color:#FDC560"/>
					<stop  offset="1" style="stop-color:#F99C1C"/>
				</linearGradient>
				<path fill="url(#SVGID_2_)" d="M31.547,51.258L28.09,62.643h-7.569l12.873-40.171h9.357l13.052,40.171h-7.866l-3.636-11.385
					H31.547z M43.05,45.716l-3.159-9.894c-0.774-2.443-1.431-5.186-2.026-7.51h-0.119c-0.597,2.324-1.192,5.125-1.908,7.51
					l-3.098,9.894H43.05z"/>
			</g>
		</g>
		<g>
			<g opacity="0.1">
				<path fill="#010101" d="M66.471,26.837c0,2.206-1.609,3.934-4.172,3.934c-2.444,0-4.054-1.728-4.054-3.934
					c0-2.265,1.669-3.994,4.112-3.994C64.861,22.843,66.41,24.572,66.471,26.837z M58.662,63.968V34.942h7.391v29.026H58.662z"/>
			</g>
			<g>
				<linearGradient id="SVGID_3_" gradientUnits="userSpaceOnUse" x1="19.8169" y1="42.0806" x2="65.8725" y2="42.0806">
					<stop  offset="0" style="stop-color:#FDC560"/>
					<stop  offset="1" style="stop-color:#F99C1C"/>
				</linearGradient>
				<path fill="url(#SVGID_3_)" d="M66.471,25.512c0,2.206-1.609,3.934-4.172,3.934c-2.444,0-4.054-1.728-4.054-3.934
					c0-2.265,1.669-3.994,4.112-3.994C64.861,21.518,66.41,23.247,66.471,25.512z M58.662,62.643V33.617h7.391v29.026H58.662z"/>
			</g>
		</g>
	</g>
</g>
</svg>
