<?xml version="1.0" encoding="utf-8"?>
<!-- Generator: Adobe Illustrator 16.0.0, SVG Export Plug-In . SVG Version: 6.00 Build 0)  -->
<!DOCTYPE svg PUBLIC "-//W3C//DTD SVG 1.1//EN" "http://www.w3.org/Graphics/SVG/1.1/DTD/svg11.dtd">
<svg version="1.1" id="Layer_1" xmlns="http://www.w3.org/2000/svg" xmlns:xlink="http://www.w3.org/1999/xlink" x="0px" y="0px"
	 width="89.659px" height="87.016px" viewBox="0 0 89.659 87.016" enable-background="new 0 0 89.659 87.016" xml:space="preserve">
<g>
	<linearGradient id="SVGID_1_" gradientUnits="userSpaceOnUse" x1="0.6611" y1="-0.6602" x2="88.9984" y2="87.6771">
		<stop  offset="0" style="stop-color:#322E7C"/>
		<stop  offset="1" style="stop-color:#272861"/>
	</linearGradient>
	<rect opacity="0.95" fill="url(#SVGID_1_)" width="89.659" height="87.016"/>
	<g>
		<g opacity="0.1">
			<path fill="#010101" d="M21.682,24.229c2.623-0.477,6.258-0.835,11.205-0.835c5.365,0,9.298,1.132,11.86,3.278
				c2.384,1.967,3.935,5.126,3.935,8.88c0,3.814-1.191,6.974-3.457,9.119c-2.92,2.921-7.509,4.291-12.695,4.291
				c-1.371,0-2.622-0.06-3.576-0.238v15.139h-7.271V24.229z M28.954,42.943c0.895,0.238,2.086,0.298,3.576,0.298
				c5.483,0,8.821-2.682,8.821-7.391c0-4.47-3.1-6.854-8.166-6.854c-2.026,0-3.456,0.179-4.231,0.358V42.943z"/>
		</g>
		<g>
			<linearGradient id="SVGID_2_" gradientUnits="userSpaceOnUse" x1="21.4243" y1="42.3027" x2="69.812" y2="42.3027">
				<stop  offset="0" style="stop-color:#9BC5E9"/>
				<stop  offset="1" style="stop-color:#7CB2E0"/>
			</linearGradient>
			<path fill="url(#SVGID_2_)" d="M21.682,22.903c2.623-0.477,6.258-0.835,11.205-0.835c5.365,0,9.298,1.132,11.86,3.278
				c2.384,1.967,3.935,5.126,3.935,8.88c0,3.814-1.191,6.974-3.457,9.119c-2.92,2.921-7.509,4.291-12.695,4.291
				c-1.371,0-2.622-0.06-3.576-0.238v15.139h-7.271V22.903z M28.954,41.618c0.895,0.238,2.086,0.298,3.576,0.298
				c5.483,0,8.821-2.682,8.821-7.391c0-4.47-3.1-6.854-8.166-6.854c-2.026,0-3.456,0.179-4.231,0.358V41.618z"/>
		</g>
	</g>
	<g>
		<g opacity="0.1">
			<path fill="#010101" d="M50.943,57.128c1.669,1.014,4.828,2.086,7.45,2.086c3.219,0,4.648-1.312,4.648-3.219
				c0-1.967-1.191-2.98-4.768-4.232c-5.662-1.966-8.046-5.065-7.987-8.462c0-5.125,4.233-9.119,10.968-9.119
				c3.218,0,6.02,0.834,7.688,1.729l-1.43,5.185c-1.252-0.716-3.576-1.668-6.139-1.668c-2.623,0-4.053,1.251-4.053,3.04
				c0,1.848,1.37,2.741,5.066,4.053c5.244,1.907,7.688,4.59,7.748,8.88c0,5.245-4.113,9.12-11.802,9.12
				c-3.517,0-6.676-0.895-8.819-2.086L50.943,57.128z"/>
		</g>
		<g>
			<linearGradient id="SVGID_3_" gradientUnits="userSpaceOnUse" x1="21.4263" y1="48.0244" x2="69.813" y2="48.0244">
				<stop  offset="0" style="stop-color:#9BC5E9"/>
				<stop  offset="1" style="stop-color:#7CB2E0"/>
			</linearGradient>
			<path fill="url(#SVGID_3_)" d="M50.943,55.803c1.669,1.014,4.828,2.086,7.45,2.086c3.219,0,4.648-1.312,4.648-3.219
				c0-1.967-1.191-2.98-4.768-4.232c-5.662-1.966-8.046-5.065-7.987-8.462c0-5.125,4.233-9.119,10.968-9.119
				c3.218,0,6.02,0.834,7.688,1.729l-1.43,5.185c-1.252-0.716-3.576-1.668-6.139-1.668c-2.623,0-4.053,1.251-4.053,3.04
				c0,1.848,1.37,2.741,5.066,4.053c5.244,1.907,7.688,4.59,7.748,8.88c0,5.245-4.113,9.12-11.802,9.12
				c-3.517,0-6.676-0.895-8.819-2.086L50.943,55.803z"/>
		</g>
	</g>
</g>
</svg>
